<svg id="Layer_1" data-name="Layer 1" xmlns="http://www.w3.org/2000/svg" xmlns:xlink="http://www.w3.org/1999/xlink" viewBox="0 0 556.18 469.53"><defs><linearGradient id="linear-gradient" x1="539.08" y1="251.92" x2="530.95" y2="266.56" gradientUnits="userSpaceOnUse"><stop offset="0" stop-color="#010101" stop-opacity="0"/><stop offset="0.95" stop-color="#010101"/></linearGradient><linearGradient id="linear-gradient-2" x1="72.17" y1="259.86" x2="412.86" y2="182.46" xlink:href="#linear-gradient"/><linearGradient id="linear-gradient-3" x1="212.75" y1="230.59" x2="-55.36" y2="174.94" gradientTransform="translate(-109.93 206.39) rotate(-50.07)" xlink:href="#linear-gradient"/><linearGradient id="linear-gradient-4" x1="466.1" y1="225.45" x2="629.25" y2="380.46" xlink:href="#linear-gradient"/><linearGradient id="linear-gradient-5" x1="392.53" y1="287.87" x2="749.34" y2="43.85" xlink:href="#linear-gradient"/><linearGradient id="linear-gradient-6" x1="344.05" y1="245.45" x2="636.01" y2="89.35" gradientTransform="translate(470.94 661.72) rotate(-129.93)" xlink:href="#linear-gradient"/><linearGradient id="linear-gradient-7" x1="522.74" y1="266.47" x2="533.22" y2="366.92" xlink:href="#linear-gradient"/></defs><title>Transfer Money 3</title><path d="M556.47,175.26a707.55,707.55,0,0,0-8.85,148.45c1.65,36.89,4.08,79.55-23.22,104.46-29.8,27.22-76.23,16.82-116.54,18.67-53.67,2.46-104.07,29.64-157.77,30.65-35.12.69-69.42-9.94-102.07-22.84-41.46-16.4-82.54-37.53-111.38-71.53C22.93,367,15.12,351.17,10.92,335c-5.39-20.91-4.77-42.47-3.15-66.38.34-5,.73-10.24,1.11-15.51,3.7-49.67-13.94-99.37,11.78-146.27,25.26-46,81.78-65,134.06-69.41S260.64,38.89,311.23,25c19-5.27,37.42-13.28,57-15.94,18.18-2.46,36.66-.23,54.79,2.66,28.68,4.58,57.6,10.85,83,24.95s47.12,37,54,65.18C565.79,125.82,560.52,150.93,556.47,175.26Z" transform="translate(-6.38 -7.99)" fill="#534fc4" opacity="0.24" style="isolation:isolate"/><path d="M547.46,264.31a6.38,6.38,0,0,1-1.34,2.69,3.54,3.54,0,0,1-1.39,1c-1.89.73-3.93-.47-5.62-1.62a115.39,115.39,0,0,1-10.74-7.89c-2-1.74-4.58-4-4.66-6.63a4.34,4.34,0,0,1,.77-2.77,7,7,0,0,1,5.85-3,14.48,14.48,0,0,1,6.55,1.65,20.62,20.62,0,0,1,8.27,6.51A12.55,12.55,0,0,1,547.46,264.31Z" transform="translate(-6.38 -7.99)" fill="#534fc4"/><path d="M546.12,267a3.54,3.54,0,0,1-1.39,1c-1.89.73-3.93-.47-5.62-1.62a115.39,115.39,0,0,1-10.74-7.89c-2-1.74-4.58-4-4.66-6.63a7.37,7.37,0,0,1,5.12-2.07,14.74,14.74,0,0,1,6.58,1.65,21.05,21.05,0,0,1,8.28,6.51A12.83,12.83,0,0,1,546.12,267Z" transform="translate(-6.38 -7.99)" fill="url(#linear-gradient)"/><path d="M10.5,270.55c-.42.77,0-.85,0,0Z" transform="translate(-6.38 -7.99)" fill="#fecb9c"/><path d="M215.24,182c-2.38,4.51-9.51,4-12.62,7.94-1.35,1.69-1.7,4-2,6.16-1.38,10.08-2.81,20.13-4.23,30.18,3.89,2.39,7.93,5,9.93,9.13s.73,10-3.58,11.51c-4.66,1.5-8.93-2.74-13.09-5.32-4.85-3.08-12.51-3.42-15.25,1.66,2.74,1.62,5.55,3.35,7.36,6s2.35,6.46.38,9c-2.88,3.58-8.51,2.42-12.78.65s-9.39-3.66-13.09-.88a27,27,0,0,1,7.05,8.16c1.07,1.85,1.84,4.23.65,6s-3.81,1.77-6,1.38c-10.12-1.88-19.29-8.66-29.45-9.12a14.29,14.29,0,0,0-1.85,0c-10.51.31-19.17,7.74-28.22,13.13a9.85,9.85,0,0,1-1.11.61,78.42,78.42,0,0,1-22.1,8.78c-4.05.93-8.09.27-12.05,1.46-4.51,1.35-8.2,4.24-11.86,7.2C36.79,307.51,22,319.75,10.92,335c-5.39-20.91-4.77-42.47-3.15-66.38,2.65-1.15,4.77-2.08,5-2.23q15.7-9.36,31.49-18.64a8,8,0,0,1,2.54-1.15c2.93-.5,5.16,2.27,6.7,4.89,5.16-7.51,12.55-13.44,20.14-18.44,8.39-5.62,17.21-10.55,26-15.52,8.08-4.58,16.2-9.12,24.29-13.71,9-5,18.13-10.16,27.87-13.7,8.32-3,17.06-4.85,25.22-8.28,8.32-3.43,14.17-6.7,23-8.16,3.43-.54,9-1.27,11.94.5S216.82,178.91,215.24,182Z" transform="translate(-6.38 -7.99)" fill="#fecb9c"/><path d="M136.36,259.46c-.62,2.38-3.74,3.27-6.32,3.58a2.5,2.5,0,0,0-1.5,1.31,14.29,14.29,0,0,0-1.85,0c-10.51.31-19.17,7.74-28.22,13.13a9.85,9.85,0,0,1-1.11.61c-.81-2.61-.77-10.08,4.73-27.25,1-3,2.12-7,3-9.9a23.71,23.71,0,0,1,2.24-5.5,25.54,25.54,0,0,1,14.86-10.82,4.32,4.32,0,0,1,3.46.11c1.16.69,1.31,2.27.93,3.51s-1.2,2.34-1.62,3.58c-1.73,4.65,2,9.31,4.89,13.43a50.64,50.64,0,0,1,5.89,10.71A5.84,5.84,0,0,1,136.36,259.46Z" transform="translate(-6.38 -7.99)" fill="url(#linear-gradient-2)"/><rect x="136.34" y="164.33" width="59.26" height="113.09" rx="5.09" transform="translate(222.45 -56.16) rotate(50.07)" fill="#534fc4"/><rect x="136.34" y="164.33" width="59.26" height="113.09" rx="5.09" transform="translate(222.45 -56.16) rotate(50.07)" fill="url(#linear-gradient-3)"/><rect x="139.33" y="171.02" width="54.91" height="97.49" rx="4.55" transform="translate(221.88 -57.17) rotate(50.07)" fill="#fffbff"/><path d="M61,223.53a92.3,92.3,0,0,1,13.16-10.26A112.51,112.51,0,0,1,90,205.64c10.32-4.29,20.65-8.6,31.34-11.82,3.25-1,6.52-1.86,9.79-2.73l28.27-7.58c.89,2.83-.64,5.83-2.35,8.25a46.31,46.31,0,0,1-21.46,16.6c-2.45.92-5,1.66-7.08,3.29a25.27,25.27,0,0,0-4,4.57c-6.25,8-15.4,14.09-19,23.58-1.21,3.15-1.77,6.59-3.56,9.44-2,3.13-5.2,5.21-8.33,7.18-12,7.59-24.36,15.26-38.16,18.78a9.11,9.11,0,0,1-5.06.24,9.67,9.67,0,0,1-4.06-3.33c-3.68-4.33-7.65-8.55-11.08-13.08-3.3-4.37-1.72-7.11,1.63-10.84A320.63,320.63,0,0,1,61,223.53Z" transform="translate(-6.38 -7.99)" fill="#fecb9c"/><rect x="154.55" y="205.29" width="32.46" height="16.15" transform="translate(223.17 -61.53) rotate(51.09)" fill="#fffbff"/><path d="M547.85,339c-11.32-17.13-27.41-30.45-43.24-43.51-3.62-3-7.31-5.85-11.85-7.2-3.93-1.19-8-.53-12.06-1.46a79,79,0,0,1-22.48-9h0l-.69-.42c-9-5.39-17.71-12.82-28.22-13.13a23.86,23.86,0,0,0-6,.58c-8.54,1.73-16.51,7-25.25,8.58-2.12.39-4.7.39-6-1.38s-.39-4.12.65-6a26.7,26.7,0,0,1,7.09-8.16c-3.7-2.78-8.86-.85-13.09.88s-9.94,2.93-12.78-.65c-2-2.51-1.51-6.32.34-9s4.66-4.35,7.36-6c-2.7-5.08-10.4-4.74-15.25-1.66-4.12,2.58-8.39,6.82-13.05,5.32-4.31-1.47-5.55-7.43-3.62-11.51s6-6.74,9.93-9.13c-1.42-10.05-2.81-20.1-4.23-30.18-.27-2.16-.66-4.47-2-6.16-3.11-4-10.24-3.43-12.58-7.94-1.58-3.08.27-6,3.23-7.81s8.51-1,11.9-.5c8.89,1.46,14.7,4.73,23.06,8.16,8.12,3.43,16.9,5.28,25.18,8.28,9.74,3.54,18.86,8.66,27.91,13.7,8.09,4.59,16.17,9.13,24.29,13.71,8.82,5,17.6,9.9,26,15.52,7.59,5,15,10.93,20.18,18.44,1.5-2.62,3.73-5.39,6.69-4.89a7.72,7.72,0,0,1,2.51,1.15q15.77,9.3,31.53,18.64c.73.42,3.34,2.22,3.73,2.95C546.22,292.17,545.5,316.28,547.85,339Z" transform="translate(-6.38 -7.99)" fill="#fecb9c"/><path d="M525.61,254.84l-4.71-2.48a1.13,1.13,0,0,0-.75-.19,1,1,0,0,0-.55.48,13.4,13.4,0,0,0-1.58,4.7,44.69,44.69,0,0,1-9.18,18.78c-2.52,3.05-5.57,6-6.45,9.83s.57,7.75,2.94,10.77S511,302,514.21,304s6.61,4,9.36,6.72c7.49-4.9,11.61-13.5,14.74-21.89.16-.44.48-1,1-.9a1,1,0,0,1,.53.39c2.46,2.88,3.89,6.67,7,8.89L548,270.5a3.08,3.08,0,0,0-.22-1.65,3.15,3.15,0,0,0-1.4-1.11,125.9,125.9,0,0,1-18.21-11.61" transform="translate(-6.38 -7.99)" fill="url(#linear-gradient-4)"/><path d="M545.46,270.55c0-.85.46.77,0,0Z" transform="translate(-6.38 -7.99)" fill="#fecb9c"/><path d="M474.24,270.82a8.82,8.82,0,0,1-.66,4c-1.31,2.5-4.62,3.08-7.43,3.2a69.78,69.78,0,0,1-7.93-.16h0l-.69-.42c-9-5.39-17.71-12.82-28.22-13.13a23.86,23.86,0,0,0-6,.58,31.8,31.8,0,0,1-5.5-4.85,24.65,24.65,0,0,1-5.7-20.18c2.08-11.93,19-26.91,28.68-12.78a68,68,0,0,0,10.4,12.36c6.12,5.7,15.36,7.12,20.06,14.67C474.16,259,474.24,265,474.24,270.82Z" transform="translate(-6.38 -7.99)" fill="url(#linear-gradient-5)"/><rect x="360.38" y="164.33" width="59.26" height="113.09" rx="5.09" transform="translate(803.32 55.57) rotate(129.93)" fill="#534fc4"/><rect x="360.38" y="164.33" width="59.26" height="113.09" rx="5.09" transform="translate(803.32 55.57) rotate(129.93)" fill="url(#linear-gradient-6)"/><rect x="361.75" y="171.02" width="54.91" height="97.49" rx="4.55" transform="translate(801.14 54.36) rotate(129.93)" fill="#fffbff"/><path d="M495,223.53a92.77,92.77,0,0,0-13.15-10.26A112.63,112.63,0,0,0,466,205.64c-10.31-4.29-20.65-8.6-31.34-11.82-3.24-1-6.52-1.86-9.79-2.73l-28.27-7.58c-.89,2.83.64,5.83,2.35,8.25a46.31,46.31,0,0,0,21.46,16.6c2.45.92,5,1.66,7.09,3.29a25.61,25.61,0,0,1,4,4.57c6.25,8,15.4,14.09,19.05,23.58,1.21,3.15,1.77,6.59,3.57,9.44,2,3.13,5.19,5.21,8.32,7.18,12.05,7.59,24.36,15.26,38.16,18.78a9.11,9.11,0,0,0,5.06.24,9.76,9.76,0,0,0,4.07-3.33c3.67-4.33,7.65-8.55,11.07-13.08,3.3-4.37,1.72-7.11-1.63-10.84A320.63,320.63,0,0,0,495,223.53Z" transform="translate(-6.38 -7.99)" fill="#fecb9c"/><rect x="368.97" y="205.29" width="32.46" height="16.15" transform="translate(786.79 39.63) rotate(128.91)" fill="#fffbff"/><path d="M227.33,186.88l-2.11-2.95a77.52,77.52,0,0,1,13.12-7l1.43,3.33A74.57,74.57,0,0,0,227.33,186.88Zm95.54-6.1A116.36,116.36,0,0,0,309.44,176l1-3.48a119.22,119.22,0,0,1,13.85,4.93Zm-69.67-5.24-1-3.5a108,108,0,0,1,14.44-2.92l.47,3.6A102.59,102.59,0,0,0,253.2,175.54ZM295.53,173a104.06,104.06,0,0,0-14.18-1.11l0-3.63a108.09,108.09,0,0,1,14.68,1.16Z" transform="translate(-6.38 -7.99)" fill="#534fc4"/><path d="M242.13,148v-4.54a13.07,13.07,0,0,1-6.88-2l1.08-3a12,12,0,0,0,6.47,1.92c3.19,0,5.35-1.84,5.35-4.4s-1.76-4-5.08-5.34c-4.59-1.8-7.41-3.87-7.41-7.78,0-3.73,2.64-6.56,6.78-7.23v-4.54h2.79v4.36a12.07,12.07,0,0,1,5.84,1.57l-1.13,3a10.82,10.82,0,0,0-5.66-1.53c-3.46,0-4.76,2.07-4.76,3.86,0,2.34,1.66,3.51,5.57,5.12,4.63,1.89,7,4.23,7,8.23,0,3.55-2.48,6.87-7.11,7.63V148Z" transform="translate(-6.38 -7.99)" fill="#534fc4"/><path d="M347.64,142.23V137.7a13.16,13.16,0,0,1-6.88-2l1.08-3a12,12,0,0,0,6.47,1.93c3.19,0,5.35-1.84,5.35-4.4s-1.76-4-5.08-5.35c-4.58-1.79-7.41-3.86-7.41-7.77,0-3.73,2.65-6.56,6.78-7.24v-4.53h2.79v4.36a12.07,12.07,0,0,1,5.84,1.57l-1.13,3a10.8,10.8,0,0,0-5.65-1.53c-3.47,0-4.77,2.07-4.77,3.86,0,2.34,1.66,3.5,5.57,5.12,4.63,1.89,7,4.23,7,8.23,0,3.55-2.48,6.87-7.1,7.63v4.67Z" transform="translate(-6.38 -7.99)" fill="#534fc4"/><path d="M286.21,229.68v-4.54a13,13,0,0,1-6.88-2l1.08-3a12,12,0,0,0,6.47,1.93c3.19,0,5.35-1.84,5.35-4.4s-1.75-4-5.08-5.35c-4.58-1.8-7.41-3.87-7.41-7.77,0-3.73,2.65-6.57,6.78-7.24v-4.54h2.79v4.36a12,12,0,0,1,5.84,1.57l-1.12,3a10.88,10.88,0,0,0-5.66-1.53c-3.47,0-4.77,2.07-4.77,3.87,0,2.33,1.66,3.5,5.57,5.12,4.63,1.89,7,4.22,7,8.22,0,3.55-2.47,6.87-7.1,7.64v4.67Z" transform="translate(-6.38 -7.99)" fill="#534fc4"/><path d="M526.36,253.89S506,288,504.61,295.49s13.44,19.11,16.69,19.11,21.93-48.21,21.93-48.21S539,257.51,526.36,253.89Z" transform="translate(-6.38 -7.99)" fill="#534fc4"/><path d="M526.87,254.06s-20.06,34.44-21.44,42,13.43,19.1,16.68,19.1,21.28-48.51,21.28-48.51S539.51,257.67,526.87,254.06Z" transform="translate(-6.38 -7.99)" fill="url(#linear-gradient-7)"/><circle cx="160.89" cy="212.01" r="19.15" fill="#534fc4" opacity="0.24" style="isolation:isolate"/><circle cx="384.11" cy="210.85" r="19.15" fill="#534fc4" opacity="0.24" style="isolation:isolate"/></svg>