<svg id="Layer_1" data-name="Layer 1" xmlns="http://www.w3.org/2000/svg" xmlns:xlink="http://www.w3.org/1999/xlink" viewBox="0 0 438.83 471.03"><defs><linearGradient id="linear-gradient" x1="273.08" y1="191.15" x2="280.99" y2="548.41" gradientUnits="userSpaceOnUse"><stop offset="0" stop-color="#010101" stop-opacity="0"/><stop offset="0.95" stop-color="#010101"/></linearGradient><linearGradient id="linear-gradient-2" x1="332.61" y1="197.12" x2="634.49" y2="197.12" gradientUnits="userSpaceOnUse"><stop offset="0" stop-color="#fff" stop-opacity="0"/><stop offset="0.14" stop-color="#fff" stop-opacity="0.22"/><stop offset="0.3" stop-color="#fff" stop-opacity="0.45"/><stop offset="0.45" stop-color="#fff" stop-opacity="0.65"/><stop offset="0.6" stop-color="#fff" stop-opacity="0.8"/><stop offset="0.73" stop-color="#fff" stop-opacity="0.91"/><stop offset="0.85" stop-color="#fff" stop-opacity="0.98"/><stop offset="0.94" stop-color="#fff"/></linearGradient><linearGradient id="linear-gradient-3" x1="264.18" y1="174.31" x2="296.98" y2="174.31" xlink:href="#linear-gradient-2"/><linearGradient id="linear-gradient-4" x1="264.18" y1="211.52" x2="296.98" y2="211.52" xlink:href="#linear-gradient-2"/><linearGradient id="linear-gradient-5" x1="222.35" y1="244.09" x2="321.94" y2="190.31" xlink:href="#linear-gradient"/><linearGradient id="linear-gradient-6" x1="224.67" y1="221.61" x2="226.14" y2="259.67" xlink:href="#linear-gradient"/><linearGradient id="linear-gradient-7" x1="280.87" y1="218" x2="424.74" y2="249.42" xlink:href="#linear-gradient"/><linearGradient id="linear-gradient-8" x1="345.96" y1="347.6" x2="428.66" y2="444.56" xlink:href="#linear-gradient"/><linearGradient id="linear-gradient-9" x1="405.33" y1="153.44" x2="398.13" y2="327.29" xlink:href="#linear-gradient"/><linearGradient id="linear-gradient-10" x1="413.68" y1="135.23" x2="406.48" y2="309.07" xlink:href="#linear-gradient"/><linearGradient id="linear-gradient-11" x1="130.37" y1="277.5" x2="187.82" y2="417.94" xlink:href="#linear-gradient"/><linearGradient id="linear-gradient-12" x1="385.36" y1="405.31" x2="285.85" y2="467.17" xlink:href="#linear-gradient"/><linearGradient id="linear-gradient-13" x1="308.32" y1="329.51" x2="344.33" y2="207.73" xlink:href="#linear-gradient"/><linearGradient id="linear-gradient-14" x1="272.36" y1="171.67" x2="305.16" y2="171.67" xlink:href="#linear-gradient-2"/><linearGradient id="linear-gradient-15" x1="272.36" y1="193.47" x2="305.16" y2="193.47" xlink:href="#linear-gradient-2"/></defs><title>Transfer Money 1</title><path d="M499.27,300.35c1,46-36.86,82.35-71.85,112.35a2.91,2.91,0,0,1-.38.34L379.71,453a90.08,90.08,0,0,1-19.61,13c-31.11,15.35-70.21,13.95-106,11.55-28.81-2-61.56-6.07-78.2-29.72-5.4-7.74-8.51-16.95-14.37-24.35-8.4-10.67-21.45-16.35-33.27-23a144.23,144.23,0,0,1-41.44-35.4c-21.94-27.48-33.1-62.43-22.11-95,.17-.55.38-1.11.59-1.67C72,250,85,234.6,94.15,217.27,123.62,161.74,115,86.12,161.4,43.6,183.89,23,215.11,15,245.32,11c31.53-4.18,64-4.71,94.8,3.07C403.29,29.9,455.22,82.91,471.33,145.8a157.53,157.53,0,0,1,3.7,18.59c2.93,21.31,2.09,43.15,6.52,64.21,1.22,5.69,2.79,11.27,4.54,16.85C491.74,263.59,498.89,281.45,499.27,300.35Z" transform="translate(-60.46 -7.99)" fill="#4e54c8" opacity="0.24" style="isolation:isolate"/><polygon points="426.97 240.46 118.03 240.46 118.03 253.71 430.9 253.71 426.97 240.46" fill="url(#linear-gradient)"/><path d="M486.09,245.45l-.87,3h-301V145.8H471.33a157.53,157.53,0,0,1,3.7,18.59c2.93,21.31,2.09,43.15,6.52,64.21C482.77,234.29,484.34,239.87,486.09,245.45Z" transform="translate(-60.46 -7.99)" fill="url(#linear-gradient-2)"/><rect x="259.05" y="170.89" width="32.8" height="6.84" fill="url(#linear-gradient-3)"/><rect x="259.05" y="199.63" width="32.8" height="23.79" fill="url(#linear-gradient-4)"/><path d="M212.7,210c3.21-6.88,5.25-14.29,8.84-21,7.1-13.24,20-23.13,24.91-37.33,5.91,2.37,7.89,9.9,7.24,16.24s-3.11,12.49-2.81,18.85a90.31,90.31,0,0,1,59.61-20.59c5.22.15,10.87,1,14.54,4.68,2.56,2.59,3.74,6.21,4.83,9.68,2.8,8.87,5.63,18.21,3.79,27.32-.57,2.82-1.58,5.62-1.33,8.48.36,3.91,3,7.92,1.36,11.48-.62,1.32-1.78,2.35-2.26,3.73-.88,2.55.84,5.21,1.2,7.88.74,5.37-4,9.88-8.71,12.54-14,7.88-30.62,9.35-45.78,14.68-48.8,17.14-67.3,6.93-67.86,5.18-3.83-11.78-11.71-26.59-12.56-38.9C197.13,224.53,209.09,217.74,212.7,210Z" transform="translate(-60.46 -7.99)" fill="#feba7b"/><path d="M238.05,247.2c-2.4,3.92,3.19,8.57,5.6,12.48,1.21,2,2.53,4,4.61,5.06,1.84.91,4,.84,6.05.76,4.12-.18,8.38-.39,12.05-2.28,5.67-2.91,8.73-9.13,11.1-15.05,7-17.44,11.24-37,5.5-54.93-1.65-5.16-4.53-10.46-9.57-12.45-4.89-1.92-10.39-.19-15.22,1.87-2.8,1.2-8.15,2.63-9.71,5.43C247.07,190.57,254.44,220.45,238.05,247.2Z" transform="translate(-60.46 -7.99)" fill="url(#linear-gradient-5)"/><path d="M214.34,288.7a6.73,6.73,0,0,1-2.93,2.58c-21.69,12.91-83.53,41.4-102.78,57.69-6.88,5.86-13.78,12-21.77,16.08q-3-3.76-5.75-7.74s-.07-.11-.11-.14c-18-26.09-26.23-57.59-16.25-87.1,6.52-.62,19.56-10,24.59-12.34,18.48-8.51,78.75-29.44,98.29-35.23,1.67-.52,3.59-1,5.19-.24a7.71,7.71,0,0,1,2.83,3.24A150.05,150.05,0,0,1,212.74,272c.84,4.29,1.46,8.65,1.92,13A6.73,6.73,0,0,1,214.34,288.7Z" transform="translate(-60.46 -7.99)" fill="#4e54c8"/><rect x="188.25" y="126.19" width="77.42" height="140.04" rx="10.56" fill="#4e54c8"/><rect x="192.15" y="135.04" width="69.6" height="116.74" fill="#fff"/><circle cx="225.53" cy="166.92" r="22.71" fill="#4e54c8" opacity="0.16"/><rect x="200.51" y="219.82" width="48.79" height="15.56" rx="3.64" fill="#4e54c8"/><path d="M268.07,237.49a7,7,0,0,0,.05,1H266.7a6.94,6.94,0,0,0,.05-1v-3.25H266c-.41,0-.52,0-1,0v-1.23a7.81,7.81,0,0,0,1,0h2.83a8.69,8.69,0,0,0,1,0v1.23a8.94,8.94,0,0,0-1,0h-.73Z" transform="translate(-60.46 -7.99)" fill="#fff"/><path d="M273.56,238.46a6.63,6.63,0,0,0-.32-1c-.2-.57-.28-.71-.44-.85a.69.69,0,0,0-.5-.18h-.66v1.06a6.52,6.52,0,0,0,.05,1H270.3a5.92,5.92,0,0,0,.06-1V234a6.6,6.6,0,0,0-.06-.95l1,0h1.68c1,0,1.65.54,1.65,1.47a1.41,1.41,0,0,1-.38,1.06,1.63,1.63,0,0,1-.61.32c.33.1.48.25.68.71.1.2.19.42.48,1.12.07.18.15.34.31.68Zm-.92-3.13a.57.57,0,0,0,.62-.6c0-.36-.21-.55-.61-.55h-1v1.15Z" transform="translate(-60.46 -7.99)" fill="#fff"/><path d="M279.26,238.46a5.31,5.31,0,0,0-.15-.69l-.18-.55h-1.84l-.17.55a3.61,3.61,0,0,0-.16.69h-1.51a5.32,5.32,0,0,0,.31-.78l1.39-3.89a3.52,3.52,0,0,0,.21-.69h1.68a6.12,6.12,0,0,0,.22.69l1.4,3.89c.12.34.23.6.31.78ZM278,234.2l-.6,1.93h1.22Z" transform="translate(-60.46 -7.99)" fill="#fff"/><path d="M284.3,235.73a7.81,7.81,0,0,1,.46.77c0-.29,0-.59,0-.95v-1.47a6.56,6.56,0,0,0-.06-1h1.38a6.83,6.83,0,0,0-.05,1v3.42a8.44,8.44,0,0,0,.05,1h-1.42a6.7,6.7,0,0,0-.48-.82l-1.19-1.8a7.5,7.5,0,0,1-.47-.79,7.52,7.52,0,0,1,.05,1v1.45a6.88,6.88,0,0,0,0,1h-1.37a6.46,6.46,0,0,0,0-1v-3.39a6.88,6.88,0,0,0,0-1h1.4a4,4,0,0,0,.45.8Z" transform="translate(-60.46 -7.99)" fill="#fff"/><path d="M288,236.71a.85.85,0,0,0,.16.48.94.94,0,0,0,.76.31c.49,0,.79-.22.79-.59a.48.48,0,0,0-.27-.45,5.63,5.63,0,0,0-1-.26,2.69,2.69,0,0,1-1-.37,1.48,1.48,0,0,1-.62-1.24c0-1,.8-1.62,2.07-1.62a2.1,2.1,0,0,1,1.79.73,1.82,1.82,0,0,1,.32.78l-1.36.15c-.08-.42-.31-.6-.8-.6s-.69.22-.69.51a.44.44,0,0,0,.31.41,3.8,3.8,0,0,0,.89.22,3.08,3.08,0,0,1,1,.36,1.45,1.45,0,0,1,.7,1.32,1.65,1.65,0,0,1-.45,1.19,2.38,2.38,0,0,1-1.7.54,3.07,3.07,0,0,1-1.44-.31,1.5,1.5,0,0,1-.69-.83,2.23,2.23,0,0,1-.15-.6Z" transform="translate(-60.46 -7.99)" fill="#fff"/><path d="M293.12,237.34a7.31,7.31,0,0,0,.05,1.12h-1.39a6,6,0,0,0,.06-1.1V234a6.25,6.25,0,0,0,0-.94c.26,0,.45,0,.94,0h1.87a7.27,7.27,0,0,0,1.08,0v1.23a9.11,9.11,0,0,0-1.08-.05h-1.48v1.06h1.21a6.84,6.84,0,0,0,1,0v1.2a8.63,8.63,0,0,0-1-.05h-1.21Z" transform="translate(-60.46 -7.99)" fill="#fff"/><path d="M300.26,238.51a6.72,6.72,0,0,0-1.06,0h-2c-.49,0-.67,0-.95,0a5.86,5.86,0,0,0,0-.94V234a6.58,6.58,0,0,0,0-.94c.27,0,.45,0,.95,0h2.06a8.31,8.31,0,0,0,1,0v1.21a8.31,8.31,0,0,0-1,0h-1.68v.95h1.39c.43,0,.58,0,1,0v1.19a8.24,8.24,0,0,0-1-.05h-1.39v1.09h1.66a8.9,8.9,0,0,0,1.05,0Z" transform="translate(-60.46 -7.99)" fill="#fff"/><path d="M304.18,238.46a7.5,7.5,0,0,0-.31-1c-.21-.57-.29-.71-.45-.85a.69.69,0,0,0-.5-.18h-.66v1.06a6.52,6.52,0,0,0,.05,1h-1.39a5.92,5.92,0,0,0,.06-1V234a6.6,6.6,0,0,0-.06-.95l1,0h1.67c1.05,0,1.65.54,1.65,1.47a1.41,1.41,0,0,1-.38,1.06,1.56,1.56,0,0,1-.61.32c.33.1.48.25.68.71.1.2.19.42.48,1.12.07.18.15.34.31.68Zm-.91-3.13a.56.56,0,0,0,.61-.6c0-.36-.21-.55-.61-.55h-1v1.15Z" transform="translate(-60.46 -7.99)" fill="#fff"/><rect x="200.51" y="219.82" width="48.79" height="15.56" rx="3.64" fill="url(#linear-gradient-6)"/><path d="M309.17,211.84c.78,1.21,2.07,2.1,2.51,3.47.79,2.49-1.6,4.8-2.2,7.35-.93,4,2.6,7.77,2.24,11.81-.26,3.07-2.73,5.91-2,8.89-3-4.38-10.55-2.51-13.21,2.1s-1.9,10.34-1,15.58c1,5.48,2.79,11.81,8,13.74,3.93,1.44,8.24-.27,12.07-1.95q-2.81-10.29-5.12-20.71a27.33,27.33,0,0,1,13.3,3.25c1.66-5.21,1.68-10.78,1.69-16.24l.05-37.47,0-19.34c0-3.86,2.39-4.14-.45-6.55-3.68,6.07-14.95,2.87-15.52,10.07-.39,4.85,3,8.4,1.79,13.47C310.49,203.26,306.55,207.73,309.17,211.84Z" transform="translate(-60.46 -7.99)" fill="url(#linear-gradient-7)"/><path d="M392.89,378.17a5.18,5.18,0,0,1-1.74,1.43c-6.07,3.55-12.56,7.25-19.61,7.22-10.35-.07-11.85,8.65-18.9,1.08-9.31-10-27.73-30.63-36.34-41.27-7.33-9-9.87-18.06-10.64-29.71-.28-3.8-.52-7.78.91-11.34.76-2,4.67-10.15,5.58-12.14a15.14,15.14,0,0,0,.55-1.43c1.57-4.64.88-9.66-.83-14.47v0a50.33,50.33,0,0,0-4-8.44c-4.36-7.43-9.77-14.75-10.4-23.3-.14-2.19.07-4.57,1.47-6.31,2.09-2.65,6.24-2.79,9.24-1.22s5.09,4.36,7.05,7.12c5.4,7.77,10.46,15.76,15.1,24,2.54-3.39,7.25-4.64,11.37-3.73s7.64,3.62,10.25,6.94c1.71,2.23,3.21,4.77,5.69,6.06,2,1.05,4.32,1.12,6.45,1.78,7.74,2.31,11.16,11.06,14.79,18.28,2.69,5.37,6,10.46,8,16.15,1.85,5.37,2.37,11.13,2.61,16.81.63,14.2-.35,28.67,3.42,42.38C393.27,375.41,393.66,377,392.89,378.17Z" transform="translate(-60.46 -7.99)" fill="#feba7b"/><path d="M334.36,367.4c3.88,3.86,12.31,13.93,16.2,17.79,1.75,1.75,3.61,3.56,6,4.24,2,.56-.45-5.93,1.58-6.27,9.82-1.64,25.76-4.33,34.9-8.28l-1.59-7.36c-3.1-1.65-16.23.91-20,1.1q-9.48.47-19,.13C349.19,368.64,336.66,369.68,334.36,367.4Z" transform="translate(-60.46 -7.99)" fill="url(#linear-gradient-8)"/><path d="M427.42,412.7a2.91,2.91,0,0,1-.38.34l-43.29,36.49-4,3.42a90.08,90.08,0,0,1-19.61,13c-10.77-27.55-17.47-79.63-17.47-79.63l5.76-1.71,52.31-15.38Z" transform="translate(-60.46 -7.99)" fill="#4e54c8"/><rect x="291.67" y="170.78" width="101.71" height="53.13" fill="#4e54c8"/><path d="M447.77,195.25v21.28c-4.53.11-8.18,4.74-8.18,10.46a4.47,4.47,0,0,0,0,.73H368.55a4.47,4.47,0,0,0,0-.73c0-5.77-3.7-10.46-8.26-10.46a7,7,0,0,0-1.77.26V195a7,7,0,0,0,1.77.26c4.56,0,8.22-4.63,8.26-10.41h71C439.63,190.56,443.29,195.14,447.77,195.25Z" transform="translate(-60.46 -7.99)" fill="url(#linear-gradient-9)"/><rect x="300.02" y="152.56" width="101.71" height="53.13" fill="#4e54c8"/><path d="M456.11,177v21.29c-4.52.1-8.18,4.73-8.18,10.46a3.59,3.59,0,0,0,.05.73H376.9a4.47,4.47,0,0,0,0-.73c0-5.78-3.7-10.46-8.26-10.46a6.53,6.53,0,0,0-1.77.26V176.77a6.53,6.53,0,0,0,1.77.26c4.56,0,8.22-4.63,8.26-10.41h71C448,172.35,451.63,176.93,456.11,177Z" transform="translate(-60.46 -7.99)" fill="url(#linear-gradient-10)"/><path d="M257.06,175.22c1.91-5.35,1.74-11.26.45-16.79-.85-3.67-2.26-7.35-4.94-10a3.79,3.79,0,0,0-2.5-1.33c-1.83,0-2.9,2-3.52,3.72q-3.9,10.81-7.08,21.87a34.66,34.66,0,0,0-1.84,10.54c.18,6.14,3.56,10.91,9.08,6.07C251,185.52,255.1,180.69,257.06,175.22Z" transform="translate(-60.46 -7.99)" fill="#feba7b"/><path d="M316.21,172.3c-3.22,1.16-6,4.18-5.87,7.61.11,2.8,2.12,5.26,4.54,6.67a25.42,25.42,0,0,0,8,2.51,15.41,15.41,0,0,0-11.4,8.28c-1.57,3.15-1.82,7.35.63,9.89a9.17,9.17,0,0,0,3.12,2,18.72,18.72,0,0,0,6.27,1.43c-4.83-.23-9.57,3.78-9.82,8.6s4.43,9.39,9.22,8.73c-3.64-.59-7.35,2.19-8.26,5.76a9.86,9.86,0,0,0,3.65,9.8A13.72,13.72,0,0,0,326.75,246c1.83-.28,3.76-1,4.74-2.55s.74-3.55.53-5.37c-2.36-20.37,5.74-40.76.66-60.84-.67-2.62-5.23-4.7-7.8-5.44A15.52,15.52,0,0,0,316.21,172.3Z" transform="translate(-60.46 -7.99)" fill="#feba7b"/><path d="M214.34,288.7a6.73,6.73,0,0,1-2.93,2.58c-21.69,12.91-83.53,41.4-102.78,57.69-6.88,5.86-13.78,12-21.77,16.08a52.69,52.69,0,0,1-5.75-7.74s-.07-.11-.11-.14a229.54,229.54,0,0,1-11.2-20.82c22.12,2.44,140.46-64.53,140.46-64.53a8.08,8.08,0,0,1,2.48.14c.84,4.29,1.46,8.65,1.92,13A6.73,6.73,0,0,1,214.34,288.7Z" transform="translate(-60.46 -7.99)" fill="url(#linear-gradient-11)"/><path d="M383.75,449.53l-4,3.42a90.08,90.08,0,0,1-19.61,13c-10.77-27.55-17.47-79.63-17.47-79.63l5.76-1.71a65.74,65.74,0,0,1,7.35-1.18c4.33,9.59,8.62,19.18,12.07,29.16,2.06,6,3.84,12.06,6.14,18s5.62,10.61,8.83,16A7,7,0,0,1,383.75,449.53Z" transform="translate(-60.46 -7.99)" fill="url(#linear-gradient-12)"/><path d="M324.21,314.76a3.49,3.49,0,0,1-.66,2.44c-1.15,1.18-3.1.31-4.46-.63-3.18-2.13-6.56-4.61-7.33-8.34a15.63,15.63,0,0,1,.25-5.4c.45-3,.73-6.11.9-9.21a6.43,6.43,0,0,0-.21-1.61c1.57-4.64.88-9.66-.83-14.47,3.8,7.39,8.05,18.52,8.86,20.54A46.78,46.78,0,0,1,324.21,314.76Z" transform="translate(-60.46 -7.99)" fill="url(#linear-gradient-13)"/><polygon points="217.91 202.48 229.5 202.48 227.37 199.39 230.01 199.39 234.18 204.49 218.16 204.49 217.91 202.48" fill="#4e54c8"/><polygon points="234.18 208.13 222.6 208.13 224.73 211.22 222.09 211.22 217.91 206.12 233.93 206.12 234.18 208.13" fill="#4e54c8"/><path d="M285.29,189.5V186a10.06,10.06,0,0,1-5.34-1.54l.84-2.33a9.34,9.34,0,0,0,5,1.5c2.48,0,4.16-1.44,4.16-3.42s-1.36-3.11-4-4.16c-3.56-1.4-5.76-3-5.76-6s2.06-5.1,5.27-5.62v-3.53h2.17v3.39a9.37,9.37,0,0,1,4.54,1.22l-.88,2.31a8.39,8.39,0,0,0-4.39-1.19c-2.69,0-3.7,1.61-3.7,3,0,1.82,1.29,2.72,4.32,4,3.6,1.47,5.42,3.28,5.42,6.39,0,2.76-1.92,5.34-5.52,5.93v3.63Z" transform="translate(-60.46 -7.99)" fill="#4e54c8"/><path d="M410.6,200.59v-3.52a10.21,10.21,0,0,1-5.34-1.54l.83-2.34a9.32,9.32,0,0,0,5,1.5c2.48,0,4.16-1.43,4.16-3.42s-1.36-3.11-3.95-4.15c-3.56-1.4-5.76-3-5.76-6s2.06-5.1,5.27-5.63v-3.52H413v3.39a9.19,9.19,0,0,1,4.54,1.22l-.88,2.3a8.39,8.39,0,0,0-4.39-1.19c-2.69,0-3.71,1.61-3.71,3,0,1.81,1.3,2.72,4.33,4,3.6,1.46,5.42,3.28,5.42,6.39,0,2.75-1.92,5.34-5.52,5.93v3.63Z" transform="translate(-60.46 -7.99)" fill="#4e54c8"/><rect x="267.24" y="152.58" width="32.8" height="38.18" opacity="0.48" fill="url(#linear-gradient-14)"/><rect x="267.24" y="180.55" width="32.8" height="25.84" opacity="0.48" fill="url(#linear-gradient-15)"/></svg>